<svg width="512" height="512" viewBox="0 0 512 512" fill="none" xmlns="http://www.w3.org/2000/svg">
<path fill-rule="evenodd" clip-rule="evenodd" d="M224.751 250.004L254.879 163.005H87.2539V462.001H327.25V206.576L315.115 218.711L224.751 250.004Z" fill="#FF7701" fill-opacity="0.33"/>
<path d="M474.746 62.1389C474.747 54.989 471.976 48.2812 466.946 43.2512L431.503 7.80886C421.089 -2.60295 404.145 -2.60295 393.733 7.80886L288.534 113.006H47.2537C41.7318 113.006 37.2539 117.484 37.2539 123.006V502C37.2539 507.522 41.7318 512 47.2537 512H367.248C372.77 512 377.248 507.522 377.248 502V170.721L466.946 81.0226C471.975 75.9937 474.745 69.2868 474.746 62.1389ZM404.514 115.169L359.586 70.2408L373.728 56.099L418.656 101.027L404.514 115.169ZM323.81 195.874L311.381 192.911L308.418 180.481L374.98 113.919L390.373 129.312L323.81 195.874ZM154.752 320.003V260.004H214.751V275.914C192.425 280.032 174.779 297.678 170.663 320.003H154.752ZM214.751 296.459V320.004H191.206C194.572 308.732 203.478 299.825 214.751 296.459ZM224.751 340.003C230.273 340.003 234.75 335.525 234.75 330.003V296.458C249.192 300.771 259.75 314.176 259.75 330.002C258.774 370.505 203.404 378.12 191.207 340.003H224.751ZM248.319 212.504C253.948 216.031 258.723 220.805 262.251 226.435L240.939 233.816L248.319 212.504ZM281.491 219.772C278.502 214.175 274.686 209.005 270.218 204.536C265.748 200.067 260.578 196.252 254.983 193.264L262.936 170.299L263.817 173.994C264.692 177.664 267.556 180.528 271.225 181.403L289.092 185.663L293.352 203.529C294.227 207.199 297.091 210.063 300.761 210.938L304.454 211.818L281.491 219.772ZM345.443 84.3835L360.836 99.7762L294.274 166.338L281.845 163.375L278.882 150.945L345.443 84.3835ZM357.248 492H57.2536V133.006H268.536L248.972 152.568C247.903 153.638 247.089 154.937 246.594 156.367L217.631 240.005H144.751C139.229 240.005 134.751 244.483 134.751 250.005V330.003C134.751 335.525 139.229 340.003 144.751 340.003H170.662C175.377 365.572 197.837 385.001 224.75 385.001C291.749 383.053 299.721 289.661 234.749 275.914V257.123L318.387 228.159C319.817 227.664 321.116 226.85 322.186 225.781L357.247 190.72V492H357.248ZM452.804 66.8798L432.799 86.8845L387.871 41.9563L407.876 21.9506C410.446 19.3807 414.791 19.3807 417.361 21.9506L452.805 57.393C455.377 59.8539 455.376 64.4209 452.804 66.8798Z" fill="#FF7701"/>
</svg>
